<svg width="12" height="7" viewBox="0 0 12 7" fill="none" xmlns="http://www.w3.org/2000/svg">
<path d="M0.0662848 0.507764C0.196958 0.199964 0.498965 8.1561e-05 0.833355 8.15756e-05L10.8334 8.20127e-05C11.1677 8.20273e-05 11.4698 0.199964 11.6004 0.507765C11.7311 0.815566 11.6651 1.17167 11.4329 1.41223L6.99897 6.00467C6.88123 6.12677 6.74161 6.27156 6.60522 6.37935C6.44184 6.50846 6.18426 6.66675 5.83335 6.66675C5.48245 6.66675 5.22487 6.50846 5.06149 6.37935C4.9251 6.27156 4.78548 6.12677 4.66774 6.00467L0.233843 1.41223C0.00158173 1.17167 -0.0643883 0.815566 0.0662848 0.507764Z" fill="white"/>
</svg>
